<?xml version="1.0" encoding="UTF-8"?>
<svg version="1.1" xmlns="http://www.w3.org/2000/svg" width="512" height="512">
<path d="M0 0 C1.8359852 0.32117226 3.67213634 0.64139713 5.50843811 0.96075439 C10.45805103 1.82457461 15.40510677 2.70226925 20.35170364 3.5831759 C25.54113389 4.50545518 30.73250835 5.41667226 35.92358398 6.32963562 C44.62999762 7.8627042 53.33474197 9.40498455 62.03857422 10.95263672 C72.09813349 12.74122043 82.16032438 14.51436147 92.22402 16.2795108 C101.92144078 17.98084538 111.61678711 19.6937356 121.3112793 21.41167259 C125.43169306 22.14158826 129.5528119 22.8673164 133.67456055 23.58965492 C138.52229498 24.43970923 143.3681389 25.29982015 148.21270561 26.16773987 C149.99024597 26.48450542 151.76841253 26.79777981 153.54722786 27.10730553 C155.97477626 27.5303059 158.39973697 27.96589132 160.82446289 28.40473938 C161.52863846 28.52440215 162.23281403 28.64406492 162.95832825 28.76735383 C169.6019028 29.99701071 173.31778303 32.3545047 177.25 37.76831055 C178.02601563 38.8356543 178.80203125 39.90299805 179.6015625 41.00268555 C185.26699106 48.98973969 190.83790622 57.04314992 196.41064453 65.0949707 C199.44743987 69.47494991 202.50367533 73.84119971 205.5625 78.20581055 C206.1311377 79.01783936 206.69977539 79.82986816 207.28564453 80.66650391 C210.17603757 84.79346607 213.06925509 88.91842979 215.96484375 93.04174805 C218.87742145 97.190135 221.77921133 101.34593514 224.67773438 105.50415039 C226.49890938 108.10604553 228.33511203 110.69693345 230.171875 113.2878418 C231.36505047 114.98933723 232.55777499 116.691149 233.75 118.39331055 C234.3076001 119.17198486 234.8652002 119.95065918 235.43969727 120.75292969 C235.95072998 121.48761475 236.4617627 122.2222998 236.98828125 122.97924805 C237.43856689 123.61652832 237.88885254 124.25380859 238.3527832 124.91040039 C241.42030481 130.87145859 240.08832459 136.64727338 238.94549561 142.92900085 C238.77287398 143.92275296 238.60025235 144.91650506 238.42239976 145.94037086 C237.84153595 149.26976635 237.24644236 152.59645734 236.65136719 155.92333984 C236.23190005 158.31013961 235.81329643 160.69709127 235.39549255 163.08418274 C234.37592335 168.89573131 233.34709307 174.70559483 232.31394258 180.51474013 C231.10992035 187.28688819 229.91633563 194.06086301 228.72313669 200.83492491 C226.59236236 212.92965957 224.45193405 225.0226658 222.30615234 237.11474609 C220.22691173 248.83188933 218.15471758 260.55024979 216.09033203 272.27001953 C215.96332471 272.99105068 215.83631738 273.71208182 215.70546135 274.4549624 C215.51527188 275.53468664 215.51527188 275.53468664 215.32124019 276.6362235 C212.96807581 289.99499586 210.60811959 303.3525608 208.2451099 316.7095949 C207.4114043 321.42307713 206.5797152 326.13691261 205.74868011 330.85086632 C204.62767535 337.20879665 203.50090024 343.56568907 202.37037849 349.92193413 C201.95705318 352.2503754 201.54544598 354.57912244 201.13571739 356.90819931 C200.57438775 360.09723392 200.00669949 363.28507496 199.43743896 366.47270203 C199.19855741 367.84258814 199.19855741 367.84258814 198.95484996 369.24014872 C196.7814279 381.30630863 194.88619403 391.43788547 184.4375 399.01831055 C171.95027757 406.5626741 153.88119279 400.58514673 140.5625 398.01831055 C138.50672736 397.63173838 136.45073876 397.2463129 134.39453125 396.86206055 C129.40626766 395.92733544 124.42117707 394.97717588 119.4375 394.01831055 C119.4460199 394.63700012 119.45453979 395.2556897 119.46331787 395.89312744 C119.46994446 396.70433044 119.47657104 397.51553345 119.48339844 398.35131836 C119.49617828 399.55779022 119.49617828 399.55779022 119.50921631 400.78863525 C119.31420402 406.85160894 115.5640125 412.77043003 111.4375 417.01831055 C106.96378011 420.44084419 102.82082487 421.96364303 97.36727905 423.03260803 C96.58397512 423.19600931 95.80067118 423.35941059 94.99363077 423.52776343 C85.55097563 425.46617669 76.05625983 427.13274838 66.56103516 428.78955078 C64.53481028 429.14620842 62.50864838 429.50322398 60.48254395 429.86056519 C55.0321162 430.82083211 49.58083662 431.77617842 44.12938356 432.73060489 C38.37914015 433.73825903 32.62972532 434.7506194 26.88021851 435.76246643 C15.98536826 437.6791256 5.08981378 439.59174925 -5.80601561 441.50283343 C-19.31527534 443.87248695 -32.82367081 446.24705249 -46.33203125 448.62182617 C-51.10404876 449.46073261 -55.87607138 450.29960999 -60.64810181 451.13844299 C-61.80807352 451.34234573 -62.96804523 451.54624847 -64.1631676 451.75633007 C-70.96525574 452.95189023 -77.76749416 454.14659035 -84.56990254 455.34032708 C-86.72964137 455.71936339 -88.88936137 456.09850699 -91.04906166 456.47776288 C-96.15401081 457.37421383 -101.25915472 458.26951292 -106.36481285 459.16191769 C-114.69744364 460.62030168 -123.02617144 462.09105881 -131.34014893 463.65261841 C-132.62790033 463.89197396 -133.91565174 464.13132952 -135.24242592 464.37793827 C-137.49719377 464.7995166 -139.75044182 465.22938541 -142.00139427 465.67088223 C-152.50531831 467.6287707 -163.18578198 468.88058259 -172.46484375 462.7644043 C-179.52638725 457.28536314 -181.97671064 449.86773314 -183.49250793 441.30540466 C-183.65377696 440.44962025 -183.81504598 439.59383584 -183.98120195 438.71211857 C-184.52200799 435.81652767 -185.04325071 432.91784045 -185.5625 430.01831055 C-185.9507515 427.88711094 -186.3391772 425.75594306 -186.72775841 423.62480354 C-187.94538949 416.90474691 -189.13668412 410.18014775 -190.32379591 403.4546417 C-190.94314332 399.9486337 -191.56509132 396.4430868 -192.18664551 392.93746948 C-193.5380668 385.31242551 -194.88616554 377.68679653 -196.2335279 370.06103444 C-197.07662329 365.28938772 -197.920423 360.51786571 -198.7643528 355.7463665 C-201.10710403 342.50001204 -203.44907948 329.25352103 -205.78793621 316.00647831 C-205.93689234 315.16281138 -206.08584847 314.31914445 -206.23931842 313.44991186 C-206.54117905 311.74020098 -206.84303953 310.03049008 -207.14489987 308.32077915 C-207.29471231 307.4722609 -207.44452474 306.62374265 -207.59887695 305.74951172 C-207.74887399 304.89994412 -207.89887103 304.05037651 -208.05341343 303.17506444 C-210.48892224 289.3814881 -212.93020311 275.58894011 -215.37396505 261.79682381 C-217.89084533 247.59157645 -220.40299871 233.38549982 -222.91041213 219.17857832 C-224.31523077 211.2195468 -225.72202754 203.26087666 -227.13403893 195.30311775 C-228.33468679 188.53641162 -229.53098021 181.76895346 -230.72171076 175.00049485 C-231.32830205 171.55319596 -231.93686216 168.10627723 -232.55098152 164.66031075 C-233.21749339 160.91407404 -233.87618033 157.1665399 -234.53300476 153.41859436 C-234.82220032 151.80913227 -234.82220032 151.80913227 -235.11723822 150.1671558 C-239.13185334 127.04956657 -239.13185334 127.04956657 -233.5625 117.01831055 C-226.53887506 107.27235036 -215.66593758 105.3184623 -204.4609375 103.4050293 C-203.22509918 103.18635696 -201.98926086 102.96768463 -200.7159729 102.74238586 C-197.45526147 102.16932991 -194.19284217 101.60759374 -190.92950439 101.04974365 C-188.27323289 100.59112031 -185.62006355 100.11578729 -182.96674156 99.64044476 C-179.77916151 99.07213195 -176.5887038 98.52053049 -173.3984375 97.9675293 C-171.6247731 97.65050301 -171.6247731 97.65050301 -169.8152771 97.32707214 C-164.11088518 96.36553903 -159.21537365 95.59113865 -153.5625 97.01831055 C-151.625 98.45581055 -151.625 98.45581055 -150.5625 100.01831055 C-150.5625 100.67831055 -150.5625 101.33831055 -150.5625 102.01831055 C-144.6225 101.52331055 -144.6225 101.52331055 -138.5625 101.01831055 C-138.459375 100.09018555 -138.35625 99.16206055 -138.25 98.20581055 C-137.5625 95.01831055 -137.5625 95.01831055 -136.5 93.14331055 C-133.32280662 91.29848858 -130.06787779 91.23082011 -126.5625 92.01831055 C-125.799375 92.86393555 -125.03625 93.70956055 -124.25 94.58081055 C-121.82696287 97.3024374 -121.82696287 97.3024374 -118.8125 97.12768555 C-116.03546598 96.85848327 -113.3094338 96.50419551 -110.5625 96.01831055 C-110.459375 95.09018555 -110.35625 94.16206055 -110.25 93.20581055 C-109.51869671 89.81522256 -109.20782749 89.0707073 -106.5625 87.01831055 C-104.19677734 86.26635742 -104.19677734 86.26635742 -101.3984375 85.73706055 C-100.36605957 85.5362085 -99.33368164 85.33535645 -98.27001953 85.12841797 C-97.17028809 84.92708252 -96.07055664 84.72574707 -94.9375 84.51831055 C-93.81843262 84.304729 -92.69936523 84.09114746 -91.54638672 83.87109375 C-88.22068831 83.24052226 -84.89226405 82.62700443 -81.5625 82.01831055 C-80.18094727 81.76186768 -80.18094727 81.76186768 -78.77148438 81.50024414 C-65.3798676 79.01831055 -65.3798676 79.01831055 -61.5625 79.01831055 C-61.3291394 77.5945813 -61.3291394 77.5945813 -61.09106445 76.14208984 C-59.27754917 65.09585419 -57.43140344 54.05530533 -55.5625 43.01831055 C-55.4422345 42.305177 -55.32196899 41.59204346 -55.19805908 40.8572998 C-54.46418642 36.51154125 -53.70742692 32.17031462 -52.9375 27.83081055 C-52.75614502 26.75984131 -52.57479004 25.68887207 -52.38793945 24.58544922 C-50.45759229 13.92798628 -47.61233071 6.36695605 -38.5625 0.01831055 C-27.45817188 -6.7313791 -12.05175149 -2.16336244 0 0 Z " fill="#FCFDFD" transform="translate(254.5625,23.981689453125)"/>
<path d="M0 0 C1.8359852 0.32117226 3.67213634 0.64139713 5.50843811 0.96075439 C10.45805103 1.82457461 15.40510677 2.70226925 20.35170364 3.5831759 C25.54113389 4.50545518 30.73250835 5.41667226 35.92358398 6.32963562 C44.62999762 7.8627042 53.33474197 9.40498455 62.03857422 10.95263672 C72.09813349 12.74122043 82.16032438 14.51436147 92.22402 16.2795108 C101.92144078 17.98084538 111.61678711 19.6937356 121.3112793 21.41167259 C125.43169306 22.14158826 129.5528119 22.8673164 133.67456055 23.58965492 C138.52229498 24.43970923 143.3681389 25.29982015 148.21270561 26.16773987 C149.99024597 26.48450542 151.76841253 26.79777981 153.54722786 27.10730553 C155.97477626 27.5303059 158.39973697 27.96589132 160.82446289 28.40473938 C161.52863846 28.52440215 162.23281403 28.64406492 162.95832825 28.76735383 C169.6019028 29.99701071 173.31778303 32.3545047 177.25 37.76831055 C178.02601563 38.8356543 178.80203125 39.90299805 179.6015625 41.00268555 C185.26699106 48.98973969 190.83790622 57.04314992 196.41064453 65.0949707 C199.44743987 69.47494991 202.50367533 73.84119971 205.5625 78.20581055 C206.1311377 79.01783936 206.69977539 79.82986816 207.28564453 80.66650391 C210.17603757 84.79346607 213.06925509 88.91842979 215.96484375 93.04174805 C218.87742145 97.190135 221.77921133 101.34593514 224.67773438 105.50415039 C226.49890938 108.10604553 228.33511203 110.69693345 230.171875 113.2878418 C231.36505047 114.98933723 232.55777499 116.691149 233.75 118.39331055 C234.3076001 119.17198486 234.8652002 119.95065918 235.43969727 120.75292969 C235.95072998 121.48761475 236.4617627 122.2222998 236.98828125 122.97924805 C237.43856689 123.61652832 237.88885254 124.25380859 238.3527832 124.91040039 C241.42030481 130.87145859 240.08832459 136.64727338 238.94549561 142.92900085 C238.77287398 143.92275296 238.60025235 144.91650506 238.42239976 145.94037086 C237.84153595 149.26976635 237.24644236 152.59645734 236.65136719 155.92333984 C236.23190005 158.31013961 235.81329643 160.69709127 235.39549255 163.08418274 C234.37592335 168.89573131 233.34709307 174.70559483 232.31394258 180.51474013 C231.10992035 187.28688819 229.91633563 194.06086301 228.72313669 200.83492491 C226.59236236 212.92965957 224.45193405 225.0226658 222.30615234 237.11474609 C220.22691173 248.83188933 218.15471758 260.55024979 216.09033203 272.27001953 C215.96332471 272.99105068 215.83631738 273.71208182 215.70546135 274.4549624 C215.51527188 275.53468664 215.51527188 275.53468664 215.32124019 276.6362235 C212.96807581 289.99499586 210.60811959 303.3525608 208.2451099 316.7095949 C207.4114043 321.42307713 206.5797152 326.13691261 205.74868011 330.85086632 C204.62767535 337.20879665 203.50090024 343.56568907 202.37037849 349.92193413 C201.95705318 352.2503754 201.54544598 354.57912244 201.13571739 356.90819931 C200.57438775 360.09723392 200.00669949 363.28507496 199.43743896 366.47270203 C199.19855741 367.84258814 199.19855741 367.84258814 198.95484996 369.24014872 C196.7814279 381.30630863 194.88619403 391.43788547 184.4375 399.01831055 C171.95027757 406.5626741 153.88119279 400.58514673 140.5625 398.01831055 C138.50672736 397.63173838 136.45073876 397.2463129 134.39453125 396.86206055 C129.40626766 395.92733544 124.42117707 394.97717588 119.4375 394.01831055 C119.4460199 394.63700012 119.45453979 395.2556897 119.46331787 395.89312744 C119.46994446 396.70433044 119.47657104 397.51553345 119.48339844 398.35131836 C119.49617828 399.55779022 119.49617828 399.55779022 119.50921631 400.78863525 C119.31420402 406.85160894 115.5640125 412.77043003 111.4375 417.01831055 C106.96378011 420.44084419 102.82082487 421.96364303 97.36727905 423.03260803 C96.58397512 423.19600931 95.80067118 423.35941059 94.99363077 423.52776343 C85.55097563 425.46617669 76.05625983 427.13274838 66.56103516 428.78955078 C64.53481028 429.14620842 62.50864838 429.50322398 60.48254395 429.86056519 C55.0321162 430.82083211 49.58083662 431.77617842 44.12938356 432.73060489 C38.37914015 433.73825903 32.62972532 434.7506194 26.88021851 435.76246643 C15.98536826 437.6791256 5.08981378 439.59174925 -5.80601561 441.50283343 C-19.31527534 443.87248695 -32.82367081 446.24705249 -46.33203125 448.62182617 C-51.10404876 449.46073261 -55.87607138 450.29960999 -60.64810181 451.13844299 C-61.80807352 451.34234573 -62.96804523 451.54624847 -64.1631676 451.75633007 C-70.96525574 452.95189023 -77.76749416 454.14659035 -84.56990254 455.34032708 C-86.72964137 455.71936339 -88.88936137 456.09850699 -91.04906166 456.47776288 C-96.15401081 457.37421383 -101.25915472 458.26951292 -106.36481285 459.16191769 C-114.69744364 460.62030168 -123.02617144 462.09105881 -131.34014893 463.65261841 C-132.62790033 463.89197396 -133.91565174 464.13132952 -135.24242592 464.37793827 C-137.49719377 464.7995166 -139.75044182 465.22938541 -142.00139427 465.67088223 C-152.50531831 467.6287707 -163.18578198 468.88058259 -172.46484375 462.7644043 C-179.52638725 457.28536314 -181.97671064 449.86773314 -183.49250793 441.30540466 C-183.65377696 440.44962025 -183.81504598 439.59383584 -183.98120195 438.71211857 C-184.52200799 435.81652767 -185.04325071 432.91784045 -185.5625 430.01831055 C-185.9507515 427.88711094 -186.3391772 425.75594306 -186.72775841 423.62480354 C-187.94538949 416.90474691 -189.13668412 410.18014775 -190.32379591 403.4546417 C-190.94314332 399.9486337 -191.56509132 396.4430868 -192.18664551 392.93746948 C-193.5380668 385.31242551 -194.88616554 377.68679653 -196.2335279 370.06103444 C-197.07662329 365.28938772 -197.920423 360.51786571 -198.7643528 355.7463665 C-201.10710403 342.50001204 -203.44907948 329.25352103 -205.78793621 316.00647831 C-205.93689234 315.16281138 -206.08584847 314.31914445 -206.23931842 313.44991186 C-206.54117905 311.74020098 -206.84303953 310.03049008 -207.14489987 308.32077915 C-207.29471231 307.4722609 -207.44452474 306.62374265 -207.59887695 305.74951172 C-207.74887399 304.89994412 -207.89887103 304.05037651 -208.05341343 303.17506444 C-210.48892224 289.3814881 -212.93020311 275.58894011 -215.37396505 261.79682381 C-217.89084533 247.59157645 -220.40299871 233.38549982 -222.91041213 219.17857832 C-224.31523077 211.2195468 -225.72202754 203.26087666 -227.13403893 195.30311775 C-228.33468679 188.53641162 -229.53098021 181.76895346 -230.72171076 175.00049485 C-231.32830205 171.55319596 -231.93686216 168.10627723 -232.55098152 164.66031075 C-233.21749339 160.91407404 -233.87618033 157.1665399 -234.53300476 153.41859436 C-234.82220032 151.80913227 -234.82220032 151.80913227 -235.11723822 150.1671558 C-239.13185334 127.04956657 -239.13185334 127.04956657 -233.5625 117.01831055 C-226.53887506 107.27235036 -215.66593758 105.3184623 -204.4609375 103.4050293 C-203.22509918 103.18635696 -201.98926086 102.96768463 -200.7159729 102.74238586 C-197.45526147 102.16932991 -194.19284217 101.60759374 -190.92950439 101.04974365 C-188.27323289 100.59112031 -185.62006355 100.11578729 -182.96674156 99.64044476 C-179.77916151 99.07213195 -176.5887038 98.52053049 -173.3984375 97.9675293 C-171.6247731 97.65050301 -171.6247731 97.65050301 -169.8152771 97.32707214 C-156.80701631 95.13439785 -156.80701631 95.13439785 -151.625 98.14331055 C-149.86312813 101.25249619 -150.08090631 103.52675632 -150.5625 107.01831055 C-154.11355468 111.99487822 -157.77762779 112.88205962 -163.49577332 113.90568542 C-164.53228531 114.0704689 -165.5687973 114.23525238 -166.63671875 114.4050293 C-167.71572952 114.59297562 -168.7947403 114.78092194 -169.90644836 114.9745636 C-173.35138978 115.57044494 -176.80022171 116.13867422 -180.25 116.70581055 C-182.55175021 117.09782864 -184.85318733 117.49168978 -187.15429688 117.88745117 C-190.41334045 118.4474306 -193.67257464 119.00478615 -196.93449402 119.54777527 C-199.81250902 120.02707385 -202.68811928 120.51769796 -205.5625 121.01831055 C-206.50727203 121.1826358 -207.45204407 121.34696106 -208.42544556 121.51626587 C-209.31992401 121.68169891 -210.21440247 121.84713196 -211.13598633 122.01757812 C-211.92846268 122.16205887 -212.72093903 122.30653961 -213.53742981 122.45539856 C-216.39754447 123.25042919 -217.85126992 124.6374687 -219.5625 127.01831055 C-221.91629586 131.72590227 -220.38798474 136.79528399 -219.13092041 141.63952637 C-218.00301475 146.35970194 -217.26585641 151.15640612 -216.4609375 155.94018555 C-216.26359009 157.09642929 -216.06624268 158.25267303 -215.86291504 159.44395447 C-215.43928819 161.92624771 -215.01690221 164.40875299 -214.59564209 166.89144897 C-213.47750076 173.4779889 -212.34920124 180.06278057 -211.21875 186.6472168 C-211.04865229 187.63855842 -211.04865229 187.63855842 -210.87511826 188.64992714 C-208.80880391 200.6835382 -206.64854511 212.69807692 -204.4375 224.70581055 C-201.69751621 239.60389363 -199.08450768 254.5192856 -196.5625 269.45581055 C-193.97774007 284.7586588 -191.34828959 300.05195759 -188.625 315.33081055 C-188.46094666 316.25123138 -188.29689331 317.17165222 -188.12786865 318.1199646 C-186.23443201 328.73285862 -184.32483236 339.34282422 -182.41015625 349.9519043 C-182.22852432 350.95935699 -182.0468924 351.96680969 -181.85975647 353.00479126 C-180.93288073 358.14476867 -180.00302967 363.28417463 -179.06762695 368.42260742 C-177.05804357 379.4952121 -175.12032647 390.57668108 -173.27822495 401.67840195 C-172.51235215 406.2795975 -171.73283291 410.87851006 -170.95623779 415.47790527 C-170.52964873 418.03113001 -170.11032592 420.58558021 -169.69854736 423.14123535 C-169.12420152 426.70376113 -168.52553469 430.26143397 -167.921875 433.8190918 C-167.7575296 434.88128433 -167.5931842 435.94347687 -167.42385864 437.03785706 C-166.66103931 441.41229574 -165.92230684 444.4660871 -163.47753906 448.21826172 C-157.16073751 452.11891313 -149.43353838 449.86232077 -142.5 448.5144043 C-141.2223175 448.27676109 -141.2223175 448.27676109 -139.91882324 448.03431702 C-138.08757679 447.69303908 -136.25698239 447.34824673 -134.42700195 447.00024414 C-129.4857118 446.06109158 -124.53944271 445.14878599 -119.59375 444.2331543 C-118.07763123 443.95143875 -118.07763123 443.95143875 -116.53088379 443.66403198 C-106.72475198 441.8480489 -96.89712851 440.17162418 -87.0625 438.51831055 C-72.87517188 436.1265843 -58.7137206 433.61497877 -44.5625 431.01831055 C-30.41123457 428.4216341 -16.24939835 425.91271438 -2.0625 423.51831055 C14.11662817 420.78681514 30.26531696 417.90813832 46.40258789 414.93945312 C55.12489859 413.33664638 63.84935368 411.76206 72.59375 410.28393555 C74.18173424 410.01325539 75.76970656 409.74250526 77.35766602 409.47167969 C80.28611497 408.97266796 83.21632856 408.48677682 86.14819336 408.00830078 C87.43862549 407.78859619 88.72905762 407.5688916 90.05859375 407.3425293 C91.1767749 407.15779053 92.29495605 406.97305176 93.44702148 406.78271484 C96.59674766 405.97760482 98.79726568 404.9001068 101.4375 403.01831055 C104.38563516 397.12204023 102.07701561 388.65420393 100.96875 382.44018555 C100.81310074 381.53292725 100.65745148 380.62566895 100.49708557 379.69091797 C99.98456895 376.71539074 99.46119796 373.74188846 98.9375 370.76831055 C98.57163299 368.65935663 98.20632682 366.55030534 97.84155273 364.44116211 C96.71841699 357.96483205 95.57981135 351.49128232 94.4375 345.01831055 C94.18072479 343.56134766 94.18072479 343.56134766 93.91876221 342.07495117 C91.959009 330.95860554 89.97919884 319.84589214 87.9924469 308.73434448 C85.97750524 297.45708479 83.98881454 286.17520186 82 274.89331055 C81.62264717 272.75325394 81.24528713 270.6131986 80.86791992 268.47314453 C80.29846558 265.24363613 79.72904179 262.01412235 79.15971375 258.78459167 C77.61956949 250.04859389 76.07691132 241.31304138 74.53375244 232.57757568 C73.03621996 224.09958144 71.5407756 215.62122033 70.04656982 207.14263916 C68.97840541 201.0824534 67.90774959 195.02271464 66.83520508 188.96330261 C66.16932236 185.19842131 65.50554412 181.43317123 64.84234619 177.66781616 C64.53363918 175.91767681 64.22404498 174.16769369 63.91351318 172.4178772 C63.49077421 170.03509553 63.07116427 167.65178359 62.65234375 165.26831055 C62.5278334 164.57094284 62.40332306 163.87357513 62.27503967 163.15507507 C61.79258802 160.39328618 61.4375 157.82933458 61.4375 155.01831055 C56.62164057 155.81675687 51.805979 156.61638383 46.99047852 157.41699219 C45.36064642 157.68780538 43.73076548 157.95832485 42.10083008 158.22851562 C39.72463475 158.62246959 37.34860221 159.01738677 34.97265625 159.4128418 C34.18312057 159.54409958 33.3935849 159.67535736 32.5801239 159.81059265 C28.61463698 160.47350984 24.65323158 161.15357024 20.6965332 161.8671875 C19.55618874 162.0724128 19.55618874 162.0724128 18.39280701 162.28178406 C16.96871587 162.53955379 15.54513368 162.8001598 14.12220764 163.06428528 C4.10285257 164.87979139 -3.89725165 165.64387898 -12.5390625 159.65893555 C-19.22012972 154.24185402 -21.573222 147.15553677 -23.0625 138.93237305 C-23.24400101 137.94984306 -23.24400101 137.94984306 -23.4291687 136.94746399 C-23.81504985 134.84746192 -24.18914703 132.74557268 -24.5625 130.64331055 C-24.82506666 129.19601424 -25.08825256 127.74883015 -25.35205078 126.30175781 C-25.86591682 123.4754946 -26.37499479 120.648437 -26.87988281 117.82055664 C-27.44525298 114.67138821 -28.02466809 111.52572924 -28.6171875 108.3815918 C-28.89095488 106.90639256 -29.16443144 105.4311393 -29.4375 103.95581055 C-29.77394531 102.1440332 -29.77394531 102.1440332 -30.1171875 100.2956543 C-30.58796152 96.83092268 -30.59199831 93.51075526 -30.5625 90.01831055 C-37.82192148 91.28617073 -45.08110865 92.55536378 -52.34000969 93.82620049 C-55.7115877 94.41643047 -59.08324102 95.00622256 -62.45507812 95.5949707 C-66.34268452 96.27379673 -70.22994256 96.95460511 -74.1171875 97.63549805 C-75.90997635 97.94812088 -75.90997635 97.94812088 -77.73898315 98.26705933 C-83.65223289 99.30437537 -89.546329 100.38659804 -95.42044067 101.62796021 C-99.97225894 102.45744415 -103.97754669 103.07494608 -108 100.39331055 C-109.90812497 97.49296059 -110.4182024 95.48145304 -110.5625 92.01831055 C-109.68331753 89.53449679 -109.15201022 88.32969621 -106.79272461 87.08349609 C-99.09616767 84.99076917 -91.3023017 83.57328696 -83.4465332 82.22851562 C-81.10441039 81.82728331 -78.76407196 81.41667576 -76.42382812 81.00463867 C-74.92978166 80.74433201 -73.43564419 80.48454708 -71.94140625 80.2253418 C-71.24455215 80.10351028 -70.54769806 79.98167877 -69.82972717 79.8561554 C-67.0286062 79.37889707 -64.41062661 79.01831055 -61.5625 79.01831055 C-61.3291394 77.5945813 -61.3291394 77.5945813 -61.09106445 76.14208984 C-59.27754917 65.09585419 -57.43140344 54.05530533 -55.5625 43.01831055 C-55.4422345 42.305177 -55.32196899 41.59204346 -55.19805908 40.8572998 C-54.46418642 36.51154125 -53.70742692 32.17031462 -52.9375 27.83081055 C-52.75614502 26.75984131 -52.57479004 25.68887207 -52.38793945 24.58544922 C-50.45759229 13.92798628 -47.61233071 6.36695605 -38.5625 0.01831055 C-27.45817188 -6.7313791 -12.05175149 -2.16336244 0 0 Z " fill="#587FD1" transform="translate(254.5625,23.981689453125)"/>
<path d="M0 0 C1.02541649 0.17098709 1.02541649 0.17098709 2.07154846 0.34542847 C4.31714164 0.72216222 6.56088998 1.10881967 8.8046875 1.49609375 C10.40726549 1.7679099 12.00988687 2.03947035 13.61254883 2.31079102 C25.67461124 4.3651694 37.70807594 6.56903184 49.73608398 8.81304932 C62.07384359 11.1144699 74.42900655 13.283617 86.8046875 15.37109375 C103.43609327 18.1773523 120.03548139 21.14024073 136.62548828 24.18139648 C137.49464874 24.34071152 138.3638092 24.50002655 139.25930786 24.66416931 C140.95702938 24.97552852 142.65468331 25.28725657 144.3522644 25.59938049 C148.44167084 26.34937342 152.53273883 27.08661016 156.62890625 27.79882812 C157.41245483 27.93520691 158.19600342 28.07158569 159.0032959 28.21209717 C160.47370958 28.46689139 161.94447517 28.71966637 163.41564941 28.97003174 C166.26779778 29.46368298 168.92774835 30.0162807 171.6796875 30.93359375 C171.83805369 36.77164154 171.30104791 42.05944202 170.18359375 47.78125 C170.03059311 48.59677841 169.87759247 49.41230682 169.71995544 50.25254822 C169.23415187 52.83506883 168.73857773 55.41558923 168.2421875 57.99609375 C167.7513775 60.5805114 167.26262312 63.16530546 166.77513123 65.75035095 C166.47253488 67.35135533 166.16770756 68.95194028 165.86024475 70.55201721 C162.53648694 87.58019819 162.53648694 87.58019819 167.74609375 103.69140625 C177.57178691 116.59776228 200.73537419 116.45553416 215.5546875 119.12109375 C217.61071448 119.49263167 219.66670435 119.86437497 221.72265625 120.23632812 C226.70790926 121.13778217 231.69365439 122.03646498 236.6796875 122.93359375 C236.13324949 133.42404444 234.24422737 143.57648331 232.33004761 153.88934326 C231.30080118 159.43817997 230.29149632 164.99064657 229.28125 170.54296875 C229.06848923 171.71044647 228.85572845 172.87792419 228.63652039 174.08078003 C226.20396115 187.47407782 223.91182975 200.89111807 221.6171875 214.30859375 C218.57666305 232.063976 215.46450557 249.80225466 212.20394897 267.51852417 C208.70429749 286.55341069 205.43042568 305.62627969 202.1796875 324.70507812 C201.21052413 330.38951897 200.22351549 336.07065881 199.22875977 341.75067139 C198.69105977 344.86766971 198.17907176 347.98809259 197.66992188 351.10986328 C197.34590855 353.0004725 197.02108646 354.89094336 196.6953125 356.78125 C196.56469421 357.62674911 196.43407593 358.47224823 196.29949951 359.34336853 C195.31411579 364.87967289 194.17251731 368.37050026 189.6796875 371.93359375 C182.49978074 373.20188762 174.98054316 371.54816434 167.90234375 370.21875 C166.92857285 370.04355331 165.95480194 369.86835663 164.95152283 369.68785095 C161.88003916 369.13287724 158.811197 368.56457201 155.7421875 367.99609375 C153.65835697 367.61829108 151.57437355 367.2413307 149.49023438 366.86523438 C145.68926751 366.1755944 141.88862458 365.48440771 138.09008789 364.78149414 C136.95404869 364.57164635 136.95404869 364.57164635 135.7950592 364.3575592 C133.73716225 363.94511291 131.71107493 363.46019383 129.6796875 362.93359375 C128.5342759 356.6175442 127.39565375 350.30029772 126.26171875 343.98217773 C125.87525741 341.83345916 125.48724901 339.68501824 125.09765625 337.53686523 C124.53758226 334.44717137 123.98309948 331.35651817 123.4296875 328.265625 C123.25469727 327.30711136 123.07970703 326.34859772 122.89941406 325.36103821 C122.73924805 324.46048203 122.57908203 323.55992584 122.4140625 322.63208008 C122.27194336 321.84376297 122.12982422 321.05544586 121.98339844 320.24324036 C121.65977388 317.7821556 121.62810776 315.41303943 121.6796875 312.93359375 C125.49258132 313.53529092 129.30493182 314.14036747 133.1171875 314.74609375 C134.25704102 314.92624023 135.39689453 315.10638672 136.57128906 315.29199219 C142.35222962 316.21283555 148.11323138 317.18440576 153.86181641 318.28857422 C161.51657299 319.75084059 168.87591868 320.30003159 176.6796875 319.93359375 C176.87542358 318.49719204 177.06096566 317.05939871 177.2421875 315.62109375 C177.34660156 314.82058594 177.45101562 314.02007812 177.55859375 313.1953125 C177.82723928 310.76542259 177.82723928 310.76542259 176.6796875 307.93359375 C175.97287842 307.80831299 175.26606934 307.68303223 174.5378418 307.55395508 C160.89115202 305.13253793 147.24849268 302.69029762 133.6171875 300.18359375 C132.46500732 299.97323486 131.31282715 299.76287598 130.12573242 299.54614258 C129.05943604 299.34915771 127.99313965 299.15217285 126.89453125 298.94921875 C125.95730225 298.77680664 125.02007324 298.60439453 124.05444336 298.42675781 C121.6796875 297.93359375 121.6796875 297.93359375 118.6796875 296.93359375 C115.97133831 283.61329087 113.39612184 270.27343419 110.95996094 256.90063477 C110.42041452 253.94530156 109.87427683 250.99122815 109.328125 248.03710938 C108.98137005 246.13939611 108.6350008 244.24161231 108.2890625 242.34375 C108.12662048 241.46985123 107.96417847 240.59595245 107.79681396 239.6955719 C107.0807214 235.72750722 106.46648753 231.98594556 106.6796875 227.93359375 C119.37965409 228.33555082 131.73364754 231.00625403 144.1796875 233.37109375 C165.7670759 238.33656481 165.7670759 238.33656481 187.6796875 239.93359375 C190.1796875 238.43359375 190.1796875 238.43359375 191.6796875 235.93359375 C192.11384673 232.89447914 192.36361506 230.9457069 190.60717773 228.34643555 C187.7899865 226.28144686 184.77467887 225.93294587 181.40234375 225.390625 C180.65961716 225.2610994 179.91689056 225.13157379 179.1516571 224.99812317 C176.68355919 224.56998778 174.21298667 224.1583269 171.7421875 223.74609375 C170.01766768 223.44912094 168.29338696 223.15075663 166.56933594 222.85107422 C162.89019577 222.21210083 159.21024028 221.57812955 155.52978516 220.94677734 C146.46864363 219.38518326 137.4225546 217.73984687 128.37643433 216.09384155 C125.455973 215.56336826 122.53481296 215.03688818 119.61352539 214.51098633 C117.81784451 214.18585641 116.0221889 213.8605869 114.2265625 213.53515625 C113.40330978 213.38754349 112.58005707 213.23993073 111.7318573 213.08784485 C108.63096619 212.52294831 105.67431363 211.93180246 102.6796875 210.93359375 C101.3596875 202.35359375 100.0396875 193.77359375 98.6796875 184.93359375 C106.55414954 184.93359375 106.55414954 184.93359375 109.97387695 185.57275391 C111.13166153 185.78425583 111.13166153 185.78425583 112.31283569 186.00003052 C113.1312796 186.15599701 113.94972351 186.3119635 114.79296875 186.47265625 C116.10571274 186.71494461 116.10571274 186.71494461 117.44497681 186.96212769 C119.32138609 187.30908747 121.19729035 187.65878781 123.07272339 188.01098633 C126.02133892 188.56406172 128.97143498 189.10846709 131.92211914 189.65039062 C139.57028717 191.05616035 147.21643308 192.4726697 154.86035156 193.90136719 C158.73314931 194.62470235 162.60778441 195.33727591 166.48397827 196.04217529 C167.88308578 196.29889484 169.28142252 196.55985907 170.67886353 196.82550049 C183.60220221 199.33493184 183.60220221 199.33493184 196.6796875 198.93359375 C199.14912279 195.22944082 199.14881839 193.3121487 198.6796875 188.93359375 C196.06478086 186.45683038 193.93373089 185.52862003 190.40234375 185.046875 C189.51949707 184.91740479 188.63665039 184.78793457 187.72705078 184.65454102 C186.7420459 184.51975342 185.75704102 184.38496582 184.7421875 184.24609375 C172.22047694 182.38697099 159.76483597 180.2263249 147.3046875 177.99609375 C146.33011597 177.82194946 145.35554443 177.64780518 144.35144043 177.46838379 C137.79313921 176.29592725 131.23611071 175.11650239 124.6796875 173.93359375 C123.89172791 173.79163574 123.10376831 173.64967773 122.29193115 173.50341797 C117.69081034 172.67417593 113.09099897 171.83807124 108.4921875 170.99609375 C107.39535645 170.79701416 106.29852539 170.59793457 105.16845703 170.39282227 C104.1886084 170.21162842 103.20875977 170.03043457 102.19921875 169.84375 C101.36495361 169.69043213 100.53068848 169.53711426 99.67114258 169.37915039 C97.6796875 168.93359375 97.6796875 168.93359375 95.6796875 167.93359375 C95.08544922 166.0793457 95.08544922 166.0793457 94.609375 163.671875 C94.43535156 162.79982422 94.26132812 161.92777344 94.08203125 161.02929688 C93.82099609 159.65161133 93.82099609 159.65161133 93.5546875 158.24609375 C93.37292969 157.34697266 93.19117188 156.44785156 93.00390625 155.52148438 C92.10770504 150.92929548 91.44568604 146.63702302 91.6796875 141.93359375 C98.30741283 142.52122876 104.8349269 143.36839052 111.390625 144.5 C112.30106064 144.65464218 113.21149628 144.80928436 114.14952087 144.96861267 C117.11852128 145.4742622 120.08659287 145.98515684 123.0546875 146.49609375 C125.13173467 146.85037702 127.20880204 147.20454191 129.28588867 147.55859375 C139.93973174 149.38228669 150.58043093 151.26577998 161.20703125 153.2421875 C162.2061554 153.42729385 163.20527954 153.61240021 164.23468018 153.80311584 C169.00508683 154.68790201 173.77327874 155.58247049 178.53857422 156.49438477 C190.52496296 158.89374628 190.52496296 158.89374628 202.6796875 158.93359375 C204.46428704 157.70012186 204.46428704 157.70012186 205.6796875 155.93359375 C206.26302083 152.43359375 206.26302083 152.43359375 205.6796875 148.93359375 C202.33569942 145.35846193 197.9336698 144.95312854 193.31640625 144.171875 C192.05149605 143.94449646 192.05149605 143.94449646 190.7610321 143.71252441 C187.96487679 143.21293862 185.16619026 142.72944939 182.3671875 142.24609375 C180.40105759 141.89820842 178.43507673 141.54947973 176.46923828 141.19995117 C164.022641 138.99713503 151.56090831 136.88085474 139.09814453 134.77172852 C135.08099138 134.09154584 131.06514824 133.40430856 127.05029297 132.71069336 C125.11560129 132.37720116 123.18086907 132.04394411 121.24609375 131.7109375 C119.856716 131.47164772 119.856716 131.47164772 118.43927002 131.2275238 C113.1833475 130.33147873 107.92772822 129.52973484 102.64453125 128.8125 C88.02355553 126.70255405 78.56568794 122.07633049 67.08300781 112.82861328 C63.08169552 109.6735761 58.87519152 106.8220275 54.6796875 103.93359375 C53.0120121 102.76836945 51.34534423 101.60170186 49.6796875 100.43359375 C48.8546875 99.85609375 48.0296875 99.27859375 47.1796875 98.68359375 C39.6796875 93.43359375 39.6796875 93.43359375 37.17797852 91.68237305 C35.51703907 90.51973167 33.85606919 89.35713377 32.19506836 88.19458008 C27.06944472 84.6069956 21.94416732 81.01892259 16.82226562 77.42602539 C15.11946982 76.23480951 13.41379 75.04770429 11.70507812 73.86499023 C8.05025532 71.33107168 4.44140407 68.78448188 0.95703125 66.01953125 C-4.10268745 62.07039288 -7.85452499 59.31107288 -14.5078125 59.80859375 C-16.45103144 60.15273239 -18.38910353 60.52743718 -20.3203125 60.93359375 C-22.23477533 61.1423985 -24.15154528 61.33147378 -26.0703125 61.49609375 C-27.48716488 61.64011157 -28.90386751 61.78562283 -30.3203125 61.93359375 C-29.63238374 55.22607367 -28.68266437 48.60003106 -27.578125 41.94921875 C-27.32456741 40.42128693 -27.32456741 40.42128693 -27.06588745 38.86248779 C-26.70934751 36.7243142 -26.35126153 34.58639789 -25.99169922 32.44873047 C-25.62637236 30.2655842 -25.26572081 28.0816506 -24.90966797 25.89697266 C-24.39267502 22.72509962 -23.86198564 19.55579096 -23.328125 16.38671875 C-23.17175568 15.41269104 -23.01538635 14.43866333 -22.85427856 13.43511963 C-22.04429072 8.72364607 -21.36476399 4.77651188 -18.3203125 0.93359375 C-12.87467632 -2.69683037 -6.19115721 -1.04571 0 0 Z " fill="#D2DBFB" transform="translate(240.3203125,38.06640625)"/>
<path d="M0 0 C2.0625 2.9375 2.0625 2.9375 2.0625 6.5625 C1.06196332 9.93931129 0.74733412 10.87993277 -1.9375 12.9375 C-4.46972656 13.7019043 -4.46972656 13.7019043 -7.578125 14.26171875 C-9.36428223 14.59115479 -9.36428223 14.59115479 -11.18652344 14.92724609 C-12.52012353 15.16016741 -13.85378475 15.39273899 -15.1875 15.625 C-16.60202871 15.88024366 -18.01641273 16.13629027 -19.43066406 16.39306641 C-33.8577792 18.99271725 -48.31989657 21.40197037 -62.77514648 23.83911133 C-75.95250655 26.06454603 -89.10673522 28.39433237 -102.25 30.8125 C-125.79131989 35.14140661 -149.37994006 39.19057792 -172.97309875 43.22598267 C-178.48317952 44.16922181 -183.99177252 45.11987211 -189.49755859 46.08789062 C-190.53897507 46.27067566 -191.58039154 46.45346069 -192.65336609 46.64178467 C-194.59134109 46.98255986 -196.52903895 47.324917 -198.46638489 47.66925049 C-200.9545768 48.10656041 -203.44486782 48.52634551 -205.9375 48.9375 C-207.07996689 49.13732483 -207.07996689 49.13732483 -208.24551392 49.34118652 C-213.58955971 50.17670895 -213.58955971 50.17670895 -216.9375 47.875 C-218.9375 44.9375 -218.9375 44.9375 -219.5625 41.9375 C-218.69531004 37.77498818 -217.27956554 36.57232237 -213.9375 33.9375 C-210.5622055 32.79781555 -207.1377329 32.28872539 -203.62109375 31.76171875 C-202.59427994 31.59090286 -201.56746613 31.42008698 -200.50953674 31.24409485 C-197.13405151 30.68623845 -193.75479905 30.15603342 -190.375 29.625 C-188.00677735 29.23736547 -185.63894123 28.84736257 -183.27148438 28.45507812 C-179.65363872 27.85583245 -176.03563211 27.25797233 -172.41635132 26.66744995 C-162.44321894 25.03908856 -152.50199663 23.2650684 -142.56619263 21.42422485 C-124.61608523 18.10060942 -106.63618873 14.96277497 -88.64474487 11.87179565 C-71.10283907 8.85638505 -53.58354104 5.73111265 -36.08007812 2.5 C-4.67984195 -3.28584648 -4.67984195 -3.28584648 0 0 Z " fill="#5A80D1" transform="translate(309.9375,294.0625)"/>
<path d="M0 0 C1.8125 2.9375 1.8125 2.9375 1.875 6.5625 C0.68917719 10.32923127 0.07309562 10.94838601 -3.1875 12.9375 C-5.40420532 13.61061096 -5.40420532 13.61061096 -7.86181641 14.03735352 C-8.79774628 14.20545029 -9.73367615 14.37354706 -10.69796753 14.54673767 C-11.71802887 14.7182283 -12.73809021 14.88971893 -13.7890625 15.06640625 C-14.86834015 15.25687027 -15.9476178 15.44733429 -17.05960083 15.64356995 C-20.64213539 16.27299248 -24.22721127 16.88647687 -27.8125 17.5 C-30.33252246 17.93964376 -32.85237685 18.38025189 -35.37207031 18.82177734 C-42.65075797 20.09370755 -49.93236136 21.3481244 -57.21476746 22.59853363 C-60.41195576 23.1478931 -63.60879993 23.699246 -66.80566406 24.25048828 C-76.63085486 25.94435129 -86.45618196 27.63738207 -96.28295898 29.32202148 C-110.82952253 31.81895793 -125.35868498 34.39563137 -139.875 37.0625 C-154.5160917 39.74827391 -169.16738839 42.36845883 -183.83731079 44.89251709 C-185.92373741 45.25204241 -188.00982672 45.61353151 -190.09555054 45.97711182 C-192.98589875 46.48022749 -195.87747086 46.97558458 -198.76953125 47.46875 C-199.62161163 47.61831146 -200.47369202 47.76787292 -201.35159302 47.92196655 C-213.56521857 49.97742399 -213.56521857 49.97742399 -217.625 47.375 C-219.79146028 43.99532196 -219.75038002 41.87766013 -219.1875 37.9375 C-216.08467768 33.80929373 -213.11100655 33.1627357 -208.13671875 32.296875 C-207.07354431 32.10525284 -207.07354431 32.10525284 -205.9888916 31.90975952 C-203.62002094 31.48699243 -201.24784138 31.0873289 -198.875 30.6875 C-197.17661006 30.38915953 -195.47845391 30.08948552 -193.78051758 29.78857422 C-188.25337233 28.81522962 -182.72084204 27.87486679 -177.1875 26.9375 C-175.31898724 26.61960235 -173.45049761 26.30156868 -171.58203125 25.98339844 C-163.86247202 24.67010774 -156.14240146 23.35993905 -148.4206543 22.05957031 C-133.13066447 19.47777992 -117.88085663 16.70361267 -102.63571167 13.87033081 C-85.20250236 10.63377458 -67.74128877 7.59346524 -50.25195312 4.67578125 C-48.43356185 4.3712842 -46.61520188 4.0666001 -44.796875 3.76171875 C-43.9195874 3.61544037 -43.0422998 3.46916199 -42.13842773 3.31845093 C-37.58386818 2.5493031 -33.04698686 1.72505911 -28.51757812 0.81884766 C-27.58480042 0.63344925 -26.65202271 0.44805084 -25.690979 0.2570343 C-23.93411629 -0.095899 -22.17883742 -0.45686607 -20.42572021 -0.82795715 C-5.81911805 -3.76531168 -5.81911805 -3.76531168 0 0 Z " fill="#5A80D1" transform="translate(303.1875,254.0625)"/>
<path d="M0 0 C1.6514645 2.41876664 1.63776343 4.82267056 1.77026367 7.68798828 C0.80575389 10.99397245 -0.93405605 11.87372898 -3.82348633 13.72314453 C-7.34318985 14.74855085 -10.91414824 15.28428563 -14.53442383 15.83642578 C-15.59692352 16.01134552 -16.65942322 16.18626526 -17.75411987 16.3664856 C-21.23349807 16.93659062 -24.71585922 17.48577009 -28.19848633 18.03564453 C-30.63075128 18.43168162 -33.06271606 18.82956635 -35.49438477 19.22924805 C-39.16493326 19.83247473 -42.83559611 20.43478048 -46.50720215 21.03153992 C-56.38256629 22.63738789 -66.23131243 24.36412955 -76.07348633 26.16064453 C-79.18780964 26.72588724 -82.30246613 27.28927622 -85.41723633 27.85205078 C-86.22083588 27.99732712 -87.02443542 28.14260345 -87.85238647 28.2922821 C-99.75162522 30.43815387 -111.66352381 32.5128124 -123.57348633 34.59814453 C-125.99528525 35.02243067 -128.41707887 35.44674705 -130.83886719 35.87109375 C-134.4897332 36.51076645 -138.14060276 37.15041878 -141.79148865 37.78997803 C-153.94379076 39.91894736 -166.09567456 42.05027162 -178.24621582 44.18927002 C-180.49245941 44.58445973 -182.73879628 44.97911961 -184.98522949 45.37322998 C-188.08389628 45.91691394 -191.18224449 46.46237838 -194.28051758 47.00830078 C-195.19438736 47.1682402 -196.10825714 47.32817963 -197.04981995 47.4929657 C-197.88883347 47.64119278 -198.72784698 47.78941986 -199.59228516 47.94213867 C-200.31748856 48.06964005 -201.04269196 48.19714142 -201.78987122 48.32850647 C-203.15855017 48.59410875 -204.51941991 48.90320262 -205.8691864 49.25242615 C-208.97186266 49.99974581 -211.64977047 50.00651202 -214.82348633 49.72314453 C-217.26098633 48.16064453 -217.26098633 48.16064453 -218.82348633 45.72314453 C-219.36941091 41.90167244 -219.44389167 39.7211879 -217.38598633 36.41064453 C-211.26818382 32.38184776 -202.45854812 32.07537986 -195.33520508 30.84033203 C-194.33656433 30.66531662 -193.33792358 30.49030121 -192.309021 30.3099823 C-190.16301561 29.93395506 -188.01686228 29.55877134 -185.87057495 29.18435669 C-180.09884404 28.17725159 -174.32828136 27.16351144 -168.55786133 26.14892578 C-167.38835434 25.94333542 -166.21884735 25.73774506 -165.01390076 25.52592468 C-155.28985979 23.81289415 -145.57608458 22.04693455 -135.86471558 20.26370239 C-115.26255927 16.48104227 -94.62676059 12.90926707 -73.97875977 9.38598633 C-63.01727965 7.51125825 -52.0640308 5.61435113 -41.13989258 3.53173828 C-40.25775085 3.36441696 -39.37560913 3.19709564 -38.46673584 3.02470398 C-34.48339143 2.26735427 -30.50324534 1.49763741 -26.52709961 0.70336914 C-5.00155683 -3.50222817 -5.00155683 -3.50222817 0 0 Z " fill="#5A80D1" transform="translate(295.823486328125,213.27685546875)"/>
<path d="M0 0 C2.0625 2.4375 2.0625 2.4375 2.625 5.9375 C1.96441507 10.04780621 1.2793844 10.90893595 -1.9375 13.4375 C-4.95581055 14.33056641 -4.95581055 14.33056641 -8.63671875 14.9140625 C-10.081228 15.15521022 -11.52572595 15.39642568 -12.97021484 15.63769531 C-13.76264587 15.76406372 -14.5550769 15.89043213 -15.371521 16.02062988 C-19.12180319 16.62990244 -22.86019206 17.30273098 -26.60054016 17.96989441 C-29.77031129 18.53471332 -32.94121777 19.09269168 -36.11254883 19.64868164 C-37.1987149 19.8391507 -38.28488098 20.02961975 -39.40396118 20.2258606 C-41.0602504 20.5162471 -41.0602504 20.5162471 -42.75 20.8125 C-60.42001713 23.8984133 -60.42001713 23.8984133 -78.0625 27.13671875 C-79.31313232 27.37277832 -80.56376465 27.60883789 -81.85229492 27.85205078 C-84.03574009 28.26843818 -86.2182852 28.68958906 -88.3996582 29.11669922 C-97.59268053 30.87671192 -97.59268053 30.87671192 -101.9375 30.4375 C-105.25419279 27.98603142 -106.69830628 26.48125441 -107.625 22.4375 C-106.83371467 18.98461857 -105.54837131 17.729246 -102.806427 15.56802368 C-99.39682011 13.50553471 -95.76493091 13.05958158 -91.87109375 12.48046875 C-90.53421005 12.25699516 -90.53421005 12.25699516 -89.1703186 12.02900696 C-86.24115904 11.54315661 -83.30845275 11.08414861 -80.375 10.625 C-78.33161027 10.29113436 -76.28856311 9.9551659 -74.24584961 9.6171875 C-71.06627443 9.09142695 -67.88652316 8.56720252 -64.70552063 8.05014038 C-57.16712479 6.82258509 -49.6471802 5.51115309 -42.1328125 4.14453125 C-41.10686478 3.95843796 -40.08091705 3.77234467 -39.02388 3.58061218 C-35.04008291 2.856995 -31.05658354 2.13188756 -27.07443237 1.39926147 C-24.33314501 0.89605903 -21.59058019 0.40044133 -18.84765625 -0.09375 C-18.04542633 -0.24333664 -17.24319641 -0.39292328 -16.41665649 -0.54704285 C-4.897839 -2.60523351 -4.897839 -2.60523351 0 0 Z " fill="#5A80D2" transform="translate(204.9375,353.5625)"/>
<path d="M0 0 C2.84830109 2.7168171 5.17075242 5.47684995 7.3984375 8.71875 C8.03579834 9.64123535 8.67315918 10.5637207 9.32983398 11.51416016 C10.00473877 12.4994873 10.67964355 13.48481445 11.375 14.5 C12.81088723 16.58094358 14.24709111 18.6616687 15.68359375 20.7421875 C16.40530762 21.78987305 17.12702148 22.83755859 17.87060547 23.91699219 C21.0373674 28.50193482 24.2364577 33.06395686 27.4375 37.625 C32.65209701 45.06476609 37.84135047 52.5213229 43 60 C40.08865892 60.87953697 37.96397377 61.03871707 34.96923828 60.55029297 C34.18807648 60.42621063 33.40691467 60.3021283 32.6020813 60.17428589 C31.34885574 59.96039719 31.34885574 59.96039719 30.0703125 59.7421875 C28.76838455 59.52479416 28.76838455 59.52479416 27.44015503 59.30300903 C25.60534016 58.99292415 23.77129307 58.67826652 21.93798828 58.359375 C19.14518792 57.8784762 16.34863075 57.42701775 13.55078125 56.9765625 C11.76531554 56.67107401 9.98014769 56.36383852 8.1953125 56.0546875 C6.94815964 55.85901688 6.94815964 55.85901688 5.67581177 55.65939331 C0.11837183 54.65022255 -3.15134652 53.21988412 -7 49 C-9.45125989 40.12319169 -5.73238871 28.37430338 -4.0625 19.4375 C-3.78099324 17.87972107 -3.50038847 16.32177886 -3.22070312 14.76367188 C-1.19060784 3.57182351 -1.19060784 3.57182351 0 0 Z " fill="#8191FE" transform="translate(426,83)"/>
<path d="M0 0 C2.77878287 1.32770924 5.30646109 2.80359341 7.84375 4.546875 C8.58512207 5.05484619 9.32649414 5.56281738 10.09033203 6.08618164 C11.28311768 6.90977173 11.28311768 6.90977173 12.5 7.75 C13.33515137 8.32419678 14.17030273 8.89839355 15.03076172 9.48999023 C22.74426788 14.80282767 30.4255927 20.16162435 38.0859375 25.55078125 C41.39259208 27.87702789 44.71095815 30.18502319 48.0390625 32.48046875 C48.83296387 33.0314624 49.62686523 33.58245605 50.44482422 34.15014648 C51.95065937 35.19523627 53.45996743 36.23534453 54.97314453 37.26977539 C56.68482724 38.4630497 58.34836649 39.7249047 60 41 C60 41.66 60 42.32 60 43 C54.27193569 44.00334522 48.54277068 45.0000559 42.8125 45.99072266 C40.86459455 46.32843299 38.91699832 46.66793206 36.96972656 47.00927734 C34.16551448 47.50051572 31.36024154 47.98524236 28.5546875 48.46875 C27.68883026 48.62186646 26.82297302 48.77498291 25.93087769 48.93273926 C14.50116543 50.8852315 14.50116543 50.8852315 10.2277832 48.36523438 C7.60882499 45.58469003 7.06568116 43.88260472 6.35546875 40.15625 C6.12649902 39.00382812 5.8975293 37.85140625 5.66162109 36.6640625 C5.44328613 35.45492187 5.22495117 34.24578125 5 33 C4.77006348 31.81148437 4.54012695 30.62296875 4.30322266 29.3984375 C3.61117543 25.77020971 2.95695075 22.13696073 2.3125 18.5 C2.08755859 17.26507813 1.86261719 16.03015625 1.63085938 14.7578125 C1.3127832 12.97503906 1.3127832 12.97503906 0.98828125 11.15625 C0.79790283 10.09212891 0.60752441 9.02800781 0.41137695 7.93164062 C0.03334371 5.23762092 -0.07928125 2.71499111 0 0 Z " fill="#ABB6FE" transform="translate(241,123)"/>
<path d="M0 0 C1.90293651 3.14398205 2.1021293 4.75646271 1.4375 8.375 C-2.80680152 14.22256704 -7.88583618 14.69081922 -14.6015625 15.76171875 C-16.21652115 16.04363823 -16.21652115 16.04363823 -17.86410522 16.33125305 C-21.30232369 16.92711452 -24.74445854 17.49524362 -28.1875 18.0625 C-30.48078444 18.45453796 -32.77375794 18.84839949 -35.06640625 19.24414062 C-39.31019379 19.97450365 -43.555559 20.69367176 -47.80322266 21.40112305 C-52.56153448 22.19417502 -57.30316416 23.05936464 -62.04135132 23.9646759 C-66.22737073 24.64596243 -70.36445306 25.13828126 -74.5625 24.375 C-77.44054768 21.97662693 -78.3108755 20.49333111 -79.125 16.875 C-78.27413545 13.0933798 -76.57045625 11.79942994 -73.5625 9.375 C-70.37997605 8.25970295 -67.1544108 7.75581115 -63.828125 7.2421875 C-62.87669617 7.0788089 -61.92526733 6.9154303 -60.94500732 6.74710083 C-57.90366203 6.22919306 -54.85859771 5.73909446 -51.8125 5.25 C-49.81088621 4.91461546 -47.80957952 4.57739258 -45.80859375 4.23828125 C-41.90163534 3.57847051 -37.99308394 2.92985536 -34.08276367 2.2902832 C-28.3413389 1.34680971 -22.61290219 0.33570232 -16.89056396 -0.7171936 C-4.6282093 -2.93496199 -4.6282093 -2.93496199 0 0 Z " fill="#5A80D1" transform="translate(324.5625,374.625)"/>
<path d="M0 0 C0.81220001 0.15062897 1.62440002 0.30125793 2.46121216 0.45645142 C5.04037808 0.93647549 7.61778751 1.42531315 10.1953125 1.9140625 C11.91786828 2.23491485 13.64052382 2.55523216 15.36328125 2.875 C17.03394509 3.18701353 18.70452101 3.49949829 20.375 3.8125 C21.519189 4.02669083 21.519189 4.02669083 22.68649292 4.24520874 C24.90013482 4.66539958 27.11077953 5.09778725 29.3203125 5.5390625 C30.13477844 5.70110168 30.94924438 5.86314087 31.78839111 6.03009033 C32.59057068 6.19756775 33.39275024 6.36504517 34.21923828 6.53759766 C34.94410431 6.68734039 35.66897034 6.83708313 36.415802 6.99136353 C39.33626673 7.83123054 40.69562053 8.99606637 42.3203125 11.5390625 C42.92258072 15.15267181 42.81880941 16.80128707 40.7578125 19.8515625 C35.47353639 23.5099075 29.80838174 22.53352371 23.79452515 21.50958252 C22.86201935 21.33884216 21.92951355 21.16810181 20.96875 20.9921875 C19.50316147 20.73438507 19.50316147 20.73438507 18.00796509 20.47137451 C15.95129872 20.10668457 13.89558883 19.73656354 11.84082031 19.36132812 C8.70116765 18.79012773 5.5581352 18.24159513 2.4140625 17.6953125 C0.4112163 17.33728885 -1.59139678 16.97795808 -3.59375 16.6171875 C-4.53030426 16.45454407 -5.46685852 16.29190063 -6.43179321 16.12432861 C-11.04842017 15.26633999 -14.87736422 14.48137078 -18.6796875 11.5390625 C-20.22555626 8.44732498 -19.97328271 5.94476698 -19.6796875 2.5390625 C-15.3321731 -4.24305996 -6.76864831 -1.29612793 0 0 Z " fill="#5980D2" transform="translate(260.6796875,67.4609375)"/>
<path d="M0 0 C1.9375 2.9375 1.9375 2.9375 1.9375 6.5625 C0.94438549 9.91426148 0.5614261 10.85279303 -2.0625 12.9375 C-4.06434631 13.60197449 -4.06434631 13.60197449 -6.37524414 14.01245117 C-7.24367447 14.17239059 -8.1121048 14.33233002 -9.0068512 14.49711609 C-9.94431686 14.65662247 -10.88178253 14.81612885 -11.84765625 14.98046875 C-12.81851669 15.15379227 -13.78937714 15.32711578 -14.78965759 15.50569153 C-16.84728494 15.87015145 -18.90596721 16.22869752 -20.96557617 16.58178711 C-24.09130837 17.11920726 -27.21260203 17.67816339 -30.33398438 18.24023438 C-32.33831311 18.59244898 -34.34286436 18.94340009 -36.34765625 19.29296875 C-37.2709523 19.45854782 -38.19424835 19.62412689 -39.14552307 19.79472351 C-51.44791355 21.87367842 -51.44791355 21.87367842 -57.0625 20.9375 C-58.81361389 19.66545105 -58.81361389 19.66545105 -60.0625 17.9375 C-60.77029977 12.36357683 -60.77029977 12.36357683 -60.0625 9.9375 C-55.72751263 5.442875 -51.1363899 4.79688215 -45.23046875 3.796875 C-44.2798909 3.62496643 -43.32931305 3.45305786 -42.34992981 3.27593994 C-40.34318657 2.91613268 -38.3351342 2.56356107 -36.32592773 2.21777344 C-33.26808432 1.69061764 -30.21513014 1.14027135 -27.16210938 0.5859375 C-25.20597384 0.23820411 -23.24960036 -0.10819388 -21.29296875 -0.453125 C-20.38749802 -0.61556702 -19.48202728 -0.77800903 -18.54911804 -0.94537354 C-4.86586321 -3.27700992 -4.86586321 -3.27700992 0 0 Z " fill="#5A80D1" transform="translate(130.0625,201.0625)"/>
<path d="M0 0 C1.875 2.8125 1.875 2.8125 2.375 5.375 C1.76454338 8.35097604 0.97184849 9.61089201 -1.125 11.8125 C-3.88720703 12.74731445 -3.88720703 12.74731445 -7.2578125 13.36328125 C-9.13774902 13.720271 -9.13774902 13.720271 -11.05566406 14.08447266 C-11.72069946 14.20308655 -12.38573486 14.32170044 -13.07092285 14.44390869 C-15.12901756 14.81322093 -17.18115636 15.20645908 -19.23339844 15.60693359 C-22.76546717 16.29316556 -26.3016955 16.95350907 -29.84082031 17.60229492 C-32.02015153 18.00371176 -34.19749692 18.41496853 -36.375 18.82617188 C-37.78895097 19.0865439 -39.20300983 19.34633085 -40.6171875 19.60546875 C-41.86870605 19.8377417 -43.12022461 20.07001465 -44.40966797 20.30932617 C-54.70021225 21.70299234 -54.70021225 21.70299234 -58.625 19.25 C-60.70892818 15.86361671 -60.68302097 13.71864682 -60.125 9.8125 C-57.30827586 6.25545427 -55.05897164 5.21261264 -50.64453125 4.43359375 C-49.57074219 4.23596436 -48.49695313 4.03833496 -47.390625 3.8347168 C-46.25109375 3.64176025 -45.1115625 3.44880371 -43.9375 3.25 C-42.77089844 3.04093018 -41.60429688 2.83186035 -40.40234375 2.61645508 C-38.06053867 2.19820637 -35.71760177 1.78624154 -33.37353516 1.38085938 C-30.56961623 0.89028946 -27.77464713 0.37085882 -24.98046875 -0.171875 C-5.5822368 -3.90756576 -5.5822368 -3.90756576 0 0 Z " fill="#5A80D1" transform="translate(123.125,161.1875)"/>
<path d="M0 0 C2.5 1.625 2.5 1.625 4 4 C4.63656938 7.73984509 4.25584708 9.50962644 2.5 12.875 C-0.51486922 15.43763884 -2.21078992 15.80455113 -6.08984375 15.55078125 C-8 15 -8 15 -10.5625 12.375 C-12.19460249 8.54310721 -12.30586416 6.91759247 -11 3 C-8.6597252 -1.1298967 -4.23475704 -0.75833677 0 0 Z " fill="#587ED2" transform="translate(128,116)"/>
</svg>
